<svg width="140" height="140" viewBox="0 0 140 140" fill="none" xmlns="http://www.w3.org/2000/svg">
<circle cx="70" cy="70" r="70" fill="black"/>
<path d="M50.115 58.1162C52.3392 55.0543 55.3687 52.5665 59.2035 50.6529C63.115 48.6627 67.4484 47.6676 72.2035 47.6676C77.8024 47.6676 82.8643 49.0071 87.3894 51.6862C91.9145 54.3654 95.4808 58.1927 98.0885 63.1682C100.696 68.0672 102 73.6934 102 80.0467C102 86.4001 100.696 92.1028 98.0885 97.1549C95.4808 102.13 91.8761 106.034 87.2743 108.866C82.7493 111.622 77.7257 113 72.2035 113C67.295 113 62.9233 112.043 59.0885 110.13C55.3304 108.216 52.3392 105.766 50.115 102.781V111.967H37V27H50.115V58.1162ZM88.6549 80.0467C88.6549 75.6836 87.7345 71.9328 85.8938 68.7944C84.1298 65.5794 81.7522 63.1682 78.7611 61.5607C75.8466 59.8767 72.7021 59.0347 69.3274 59.0347C66.0295 59.0347 62.885 59.8767 59.8938 61.5607C56.9794 63.2448 54.6018 65.6943 52.7611 68.9092C50.997 72.1242 50.115 75.9132 50.115 80.2764C50.115 84.6395 50.997 88.4668 52.7611 91.7583C54.6018 94.9733 56.9794 97.4228 59.8938 99.1068C62.885 100.791 66.0295 101.633 69.3274 101.633C72.7021 101.633 75.8466 100.791 78.7611 99.1068C81.7522 97.3462 84.1298 94.8202 85.8938 91.5287C87.7345 88.2372 88.6549 84.4099 88.6549 80.0467Z" fill="white"/>
</svg>
