<svg width="140" height="140" viewBox="0 0 140 140" fill="none" xmlns="http://www.w3.org/2000/svg">
<circle cx="70" cy="70" r="70" fill="black"/>
<path d="M57.115 58.1162C59.3392 55.0543 62.3687 52.5665 66.2035 50.6529C70.115 48.6627 74.4484 47.6676 79.2035 47.6676C84.8024 47.6676 89.8643 49.0071 94.3894 51.6862C98.9145 54.3654 102.481 58.1927 105.088 63.1682C107.696 68.0672 109 73.6934 109 80.0467C109 86.4001 107.696 92.1028 105.088 97.1549C102.481 102.13 98.8761 106.034 94.2743 108.866C89.7493 111.622 84.7257 113 79.2035 113C74.295 113 69.9233 112.043 66.0885 110.13C62.3304 108.216 59.3392 105.766 57.115 102.781V111.967H44V27H57.115V58.1162ZM95.6549 80.0467C95.6549 75.6836 94.7345 71.9328 92.8938 68.7944C91.1298 65.5794 88.7522 63.1682 85.7611 61.5607C82.8466 59.8767 79.7021 59.0347 76.3274 59.0347C73.0295 59.0347 69.885 59.8767 66.8938 61.5607C63.9794 63.2448 61.6018 65.6943 59.7611 68.9092C57.997 72.1242 57.115 75.9132 57.115 80.2764C57.115 84.6395 57.997 88.4668 59.7611 91.7583C61.6018 94.9733 63.9794 97.4228 66.8938 99.1068C69.885 100.791 73.0295 101.633 76.3274 101.633C79.7021 101.633 82.8466 100.791 85.7611 99.1068C88.7522 97.3462 91.1298 94.8202 92.8938 91.5287C94.7345 88.2372 95.6549 84.4099 95.6549 80.0467Z" fill="white"/>
</svg>
